<?xml version="1.0" encoding="utf-8"?>
<!-- Generator: Adobe Illustrator 19.0.1, SVG Export Plug-In . SVG Version: 6.00 Build 0)  -->
<svg version="1.1" id="Слой_1" xmlns="http://www.w3.org/2000/svg" xmlns:xlink="http://www.w3.org/1999/xlink" x="0px" y="0px"
	 viewBox="0 0 119.7 53" enable-background="new 0 0 119.7 53" xml:space="preserve">
<g display="none">
	<path display="inline" d="M145,70c59,0,118,0,177-0.1c3.4,0,4.1,0.7,4.1,4.1c-0.1,106.7-0.1,213.3,0,320c0,3.4-0.7,4.1-4.1,4.1
		c-118-0.1-236-0.1-354,0c-3.4,0-4.1-0.7-4.1-4.1c0.1-106.7,0.1-213.3,0-320c0-3.4,0.7-4.1,4.1-4.1C27,70,86,70,145,70z"/>
	<path display="inline" fill="#FEFEFE" d="M88,235.2c0-4.7,0.2-9.3-0.1-14c-0.2-3.1,0.8-4.5,3.8-4.9c7.2-0.9,14.5-3,21.3,1.3
		c1.6,1,2.8,0.1,4.1-0.6c3.7-1.7,7.6-2.5,11.6-1.8c6.9,1.1,10.8,4.7,11.4,12.4c0.6,7.9,0.3,16,0.4,23.9c0,1.7-0.5,2.5-2.2,2.4
		c-1.3-0.1-2.7-0.2-4,0c-3.8,0.6-5.1-0.7-4.9-4.7c0.3-6.5,0-13-0.2-19.4c-0.1-3.3-1.8-5.3-5.4-5.2c-3.3,0.1-4.9,0.6-4.4,4.9
		c0.8,7.1,0.2,14.3,0.4,21.4c0.1,2.5-0.8,3.3-3.2,3c-1.2-0.1-2.4-0.2-3.5,0c-3.4,0.5-4.5-0.6-4.4-4.2c0.1-6.8,0.7-13.6-0.5-20.4
		c-0.5-2.6-1.6-4.4-4.3-4.7c-3.3-0.4-5.6-0.2-5.3,4.5c0.5,7,0,14,0.2,21c0.1,3-0.6,4.4-3.8,3.9c-1.5-0.2-3-0.2-4.5,0
		c-2.3,0.3-2.8-0.8-2.7-2.8C88.1,245.9,88,240.5,88,235.2z"/>
	<path display="inline" fill="#F0CD3E" d="M17,259.9c2.3,0.8,7-2,4.8,4.5c-1.1,3.5,5.4,7,8.8,5.2c9.6-5.2,21.7-0.7,25.1,9.7
		c1.1,3.3,2.8,4.6,6.1,4.5c3.1-0.1,4.7-1.4,5.4-4.6c2.6-10.7,15.1-15.9,24.6-10.4c1.8,1,3.5,2.6,5.3,0.8c1.9-1.9,5.7-3.1,3.7-7.1
		c-0.2-0.5-0.2-1.4,0.1-1.9c0.5-0.9,9.3-0.7,10.1,0.2c2.2,2.6,3,5.6,0.8,8.6c-3.1,4.1-6.6,7.9-10.9,10.8c-3.1,2.2-5.9,2.1-9.2-0.1
		c-9.1-6.2-13.8-4.2-16.2,6.7c-1,4.5-3.7,7.3-8.7,7.2c-3.7,0-7.3,0-11,0c-4.8,0-7.3-2.7-8-7.1c-1.8-10.2-7.7-12.7-16.1-6.7
		c-3.5,2.5-6.6,2.5-10,0c-3.7-2.8-6.9-6.2-10-9.7c-2.4-2.8-2.4-5.8-1.2-8.8C12,258.7,14.9,260.6,17,259.9z"/>
	<path display="inline" fill="#FDFDFD" d="M61.1,255c-11.4,0-18.9-7.8-19-19.8c-0.1-11.8,7.6-20,18.7-20.1
		c11.3-0.1,18.8,7.9,18.8,19.9C79.7,247.2,72.5,255,61.1,255z"/>
	<path display="inline" fill="#FEFEFE" d="M1,235.4c0-5,0-10,0-15c0-1.6-0.3-3.1,2.2-3.6c6.2-1.2,12.5-2.4,18.8-1.3
		c7.6,1.4,11.6,6.2,11.9,14.4c0.2,7-0.1,14,0.1,21c0.1,2.9-1.1,3.2-3.5,3.2c-7.5,0.1-7.5,0.2-7.5-7.1c0-4.5-0.1-9,0-13.5
		c0-2-0.2-4-1-5.9c-1.7-3.9-5.2-3-8.2-2.8c-3.3,0.2-1.8,3-1.8,4.7c-0.2,7-0.2,14,0,21c0.1,2.8-0.7,4-3.6,3.6c-1.3-0.2-2.7-0.2-4,0
		c-3,0.5-3.5-1-3.4-3.7C1.1,245.4,1,240.4,1,235.4z"/>
	<path display="inline" fill="#FCFCFC" d="M205.1,236c0-4.7,0.2-9.3-0.1-14c-0.2-3.4,1.1-4.6,4.3-5.1c6.7-0.9,13.5-2.7,19.6,2.2
		c1.1,0.9,1.8,0,2.6-0.4c1.9-0.7,3.6-1.7,5.5-2.2c10.6-2.9,17.6,1.7,18.4,12.5c0.6,7.4,0.1,15,0.2,22.5c0,2-0.7,2.5-2.6,2.6
		c-2,0-2.5-0.8-2.5-2.7c0.1-7,0.2-14,0-21c-0.3-8.2-3.9-11-11.9-9.7c-6.1,1-6.4,1.8-6,7.9c0.4,7.6,0.2,15.3,0.3,23
		c0,2.1-0.9,2.4-2.7,2.5c-2.3,0.1-2.3-1.1-2.3-2.8c0-6.3,0.1-12.7,0-19c-0.2-10.5-6.3-14.6-16.3-11.4c-2.2,0.7-1.7,2.2-1.7,3.5
		c0,8.7,0,17.3,0,26c0,1.6,0.9,3.7-2.3,3.7c-3.1,0-2.5-1.8-2.5-3.6C205.1,245.7,205.1,240.8,205.1,236z"/>
	<path display="inline" fill="#FDFDFD" d="M150,234.7c0-5,0.1-10-0.1-15c-0.1-2.7,0.5-3.7,3.5-3.7c7.5,0,7.5-0.1,7.5,7.2
		c0,9-0.1,18,0.1,26.9c0.1,3-0.7,4.3-3.8,3.9c-1.5-0.2-3-0.2-4.5,0c-2.3,0.3-2.8-0.8-2.7-2.9C150.1,245.7,150,240.2,150,234.7z"/>
	<path display="inline" fill="#FBFBFB" d="M278.1,216c2.3,0,4.6,0.1,6.9,0.8c2,0.6,2.2,1.6,1.8,3.3c-0.5,2.1-1.7,1.4-3,1
		c-2.9-0.8-5.8-1.6-8.8-0.8c-2.7,0.7-5.2,1.7-5.5,4.9c-0.3,2.9,1.4,4.7,3.8,5.8c2.9,1.3,5.8,2.5,8.7,3.8c5.9,2.8,7.9,6.1,7,11.8
		c-0.9,5.4-5.1,7.2-9.6,8c-4.1,0.7-8.3,0.7-12.4-0.6c-1.6-0.5-3.4-0.7-2.7-3.2c0.7-2.5,2-1.8,3.8-1.3c3.4,1.1,6.8,1.3,10.3,0.7
		c2.8-0.5,5.2-1.5,5.7-4.7c0.5-3.1-1.2-5.1-3.8-6.3c-2.7-1.3-5.5-2.3-8.2-3.6c-6.2-2.9-8.5-6.6-7.5-11.4c1.1-5.2,5.4-8.1,12.1-8.2
		C277.1,216,277.6,216,278.1,216z"/>
	<path display="inline" fill="#FBFBFB" d="M187.1,216c3.2,0.1,5.5,0,7.7,0.8c1.5,0.5,2.4,1,1.7,2.8c-0.6,1.4-1.2,2.4-2.8,1.5
		c-0.1-0.1-0.3-0.1-0.5-0.1c-5.7-0.9-11.6-1.7-15.3,4c-3.9,6-3.9,12.7-1,19.1c2.4,5.5,8.9,7.5,16.5,5.8c1.4-0.3,2.9-2.2,3.8,0.8
		c0.9,3.1-1.3,2.8-2.9,3.3c-9.3,2.8-17.9-0.2-21.8-7.3c-4.7-8.8-3-21.5,3.9-27.2C179.7,216.6,183.6,215.6,187.1,216z"/>
	<path display="inline" fill="#FAFAFA" d="M155.4,198.7c3.8,0,6.6,2.9,6.5,6.6c-0.1,3.8-3,6.7-6.7,6.3c-3.6-0.4-6.2-2.1-6.2-6.3
		C149,201.4,151.6,198.7,155.4,198.7z"/>
	<path display="inline" fill="#010101" d="M68.3,235.1c0,2.3-0.1,4.6-1.2,6.8c-1.3,2.4-3.2,3.7-6,3.8c-2.7,0-4.9-0.9-6.1-3.4
		c-2.2-4.6-2.2-9.3-0.2-13.9c1.2-2.8,3.5-3.9,6.4-3.8c2.7,0.1,4.7,1.3,5.9,3.8C68.3,230.5,68.3,232.8,68.3,235.1z"/>
</g>
<g>
	<path fill="#FFFFFF" d="M5.4,19.8c0.7-0.2,1.6-0.4,2.6-0.6c1.1-0.2,2.2-0.3,3.4-0.3c1.2,0,2.2,0.2,3,0.5c0.8,0.3,1.4,0.8,1.9,1.3
		c0.5,0.6,0.8,1.3,1,2c0.2,0.8,0.3,1.7,0.3,2.6v8h-4v-7.5c0-1.3-0.2-2.2-0.5-2.7c-0.3-0.5-1-0.8-1.9-0.8c-0.3,0-0.6,0-0.9,0
		s-0.6,0.1-0.9,0.1v10.9h-4V19.8z"/>
	<path fill="#FFFFFF" d="M34.4,26.3c0,1.1-0.2,2.1-0.5,3s-0.8,1.7-1.4,2.4s-1.3,1.2-2.2,1.5c-0.9,0.4-1.8,0.5-2.9,0.5
		c-1,0-2-0.2-2.8-0.5s-1.6-0.9-2.2-1.5c-0.6-0.7-1.1-1.4-1.4-2.4c-0.3-0.9-0.5-1.9-0.5-3s0.2-2.1,0.5-3c0.3-0.9,0.8-1.7,1.5-2.3
		s1.4-1.1,2.2-1.5c0.9-0.4,1.8-0.5,2.8-0.5c1,0,2,0.2,2.8,0.5c0.9,0.4,1.6,0.9,2.2,1.5s1.1,1.4,1.4,2.3
		C34.2,24.2,34.4,25.2,34.4,26.3z M30.3,26.3c0-1.2-0.2-2.2-0.7-2.9s-1.2-1.1-2.1-1.1c-0.9,0-1.6,0.4-2.1,1.1
		c-0.5,0.7-0.8,1.7-0.8,2.9c0,1.2,0.3,2.2,0.8,2.9c0.5,0.7,1.2,1.1,2.1,1.1c0.9,0,1.6-0.4,2.1-1.1C30.1,28.6,30.3,27.6,30.3,26.3z"
		/>
	<path fill="#FFFFFF" d="M45.3,25.9c0-1.3-0.2-2.2-0.5-2.7c-0.3-0.5-0.9-0.8-1.7-0.8c-0.3,0-0.5,0-0.8,0s-0.5,0.1-0.8,0.1v10.9h-4
		V19.8c0.3-0.1,0.7-0.2,1.2-0.3c0.5-0.1,0.9-0.2,1.5-0.3c0.5-0.1,1-0.1,1.6-0.2s1.1-0.1,1.6-0.1c1,0,1.8,0.1,2.5,0.4
		c0.6,0.3,1.2,0.6,1.6,0.9c0.6-0.4,1.2-0.7,2-1c0.7-0.2,1.4-0.3,2.1-0.3c1.1,0,2.1,0.2,2.8,0.5c0.7,0.3,1.3,0.8,1.7,1.3
		c0.4,0.6,0.7,1.3,0.9,2s0.2,1.7,0.2,2.6v8h-4v-7.5c0-1.3-0.2-2.2-0.5-2.7c-0.3-0.5-0.9-0.8-1.7-0.8c-0.2,0-0.5,0.1-0.9,0.2
		s-0.7,0.2-1,0.4c0.1,0.4,0.2,0.8,0.2,1.3c0,0.5,0.1,0.9,0.1,1.5v7.7h-4V25.9z"/>
	<path fill="#FFFFFF" d="M65,15.2c0,0.7-0.2,1.3-0.7,1.7c-0.5,0.4-1,0.6-1.7,0.6S61.4,17.4,61,17c-0.5-0.4-0.7-1-0.7-1.7
		c0-0.7,0.2-1.3,0.7-1.7c0.5-0.4,1-0.6,1.7-0.6s1.2,0.2,1.7,0.6C64.8,13.9,65,14.5,65,15.2z M64.7,33.4h-4V19.3h4V33.4z"/>
	<path fill="#FFFFFF" d="M74.8,33.8c-1.1,0-2.1-0.2-3-0.5s-1.6-0.9-2.1-1.5c-0.6-0.6-1-1.4-1.3-2.3c-0.3-0.9-0.4-1.9-0.4-2.9
		c0-1.1,0.2-2.1,0.5-3c0.3-0.9,0.8-1.7,1.3-2.3c0.6-0.7,1.3-1.2,2.1-1.5c0.8-0.4,1.8-0.6,2.8-0.6c0.6,0,1.3,0.1,1.9,0.2
		c0.6,0.1,1.2,0.3,1.8,0.5l-0.6,2.1c-0.4-0.2-0.8-0.3-1.3-0.4s-1-0.2-1.6-0.2c-1.4,0-2.5,0.4-3.2,1.3c-0.7,0.9-1.1,2.2-1.1,3.8
		c0,0.8,0.1,1.4,0.3,2.1c0.2,0.6,0.4,1.2,0.8,1.6c0.4,0.4,0.8,0.8,1.4,1c0.6,0.2,1.3,0.4,2.1,0.4c0.7,0,1.3-0.1,1.8-0.2
		c0.5-0.1,1-0.3,1.3-0.4l0.3,2.1c-0.1,0.1-0.3,0.2-0.6,0.3c-0.3,0.1-0.6,0.2-0.9,0.2c-0.3,0.1-0.7,0.1-1.1,0.2
		C75.5,33.7,75.1,33.8,74.8,33.8z"/>
	<path fill="#FFFFFF" d="M81.2,19.9c0.6-0.1,1.3-0.3,2.3-0.5c0.9-0.2,2-0.2,3.3-0.2c0.9,0,1.6,0.1,2.3,0.4c0.6,0.2,1.1,0.6,1.5,1.1
		c0.1-0.1,0.3-0.2,0.6-0.4s0.6-0.3,1-0.5c0.4-0.2,0.8-0.3,1.3-0.4c0.5-0.1,1-0.2,1.6-0.2c1.1,0,2,0.2,2.6,0.5
		c0.7,0.3,1.2,0.8,1.6,1.3c0.4,0.6,0.6,1.3,0.8,2c0.1,0.8,0.2,1.6,0.2,2.6v7.8h-2.5v-7.3c0-0.8,0-1.5-0.1-2.1
		c-0.1-0.6-0.2-1.1-0.5-1.5c-0.2-0.4-0.5-0.7-0.9-0.9c-0.4-0.2-0.9-0.3-1.5-0.3c-0.8,0-1.5,0.1-2.1,0.3c-0.5,0.2-0.9,0.4-1.1,0.6
		c0.1,0.5,0.3,1,0.3,1.5c0.1,0.6,0.1,1.1,0.1,1.7v7.8h-2.5v-7.3c0-0.8,0-1.5-0.1-2.1c-0.1-0.6-0.2-1.1-0.5-1.5
		c-0.2-0.4-0.5-0.7-0.9-0.9c-0.4-0.2-0.9-0.3-1.5-0.3c-0.3,0-0.5,0-0.8,0c-0.3,0-0.6,0-0.8,0.1c-0.3,0-0.5,0.1-0.7,0.1
		c-0.2,0-0.4,0.1-0.4,0.1v11.8h-2.5V19.9z"/>
	<path fill="#FFFFFF" d="M107.6,31.6c1,0,1.8-0.1,2.3-0.4c0.5-0.3,0.7-0.7,0.7-1.3c0-0.6-0.2-1.1-0.7-1.5c-0.5-0.4-1.3-0.8-2.4-1.2
		c-0.5-0.2-1.1-0.4-1.5-0.7c-0.5-0.2-0.9-0.5-1.3-0.8c-0.4-0.3-0.6-0.7-0.9-1.1s-0.3-1-0.3-1.6c0-1.2,0.5-2.2,1.4-2.9
		c0.9-0.7,2.2-1.1,3.7-1.1c0.4,0,0.8,0,1.2,0.1c0.4,0,0.8,0.1,1.1,0.2c0.3,0.1,0.6,0.1,0.9,0.2c0.3,0.1,0.5,0.1,0.6,0.2l-0.5,2.1
		c-0.3-0.1-0.7-0.3-1.3-0.4c-0.6-0.2-1.3-0.2-2.1-0.2c-0.7,0-1.3,0.1-1.8,0.4c-0.5,0.3-0.8,0.7-0.8,1.3c0,0.3,0.1,0.6,0.2,0.8
		c0.1,0.2,0.3,0.4,0.5,0.6s0.5,0.4,0.9,0.5c0.4,0.2,0.8,0.3,1.3,0.5c0.7,0.3,1.3,0.5,1.8,0.7c0.5,0.2,1,0.5,1.3,0.8
		c0.4,0.3,0.6,0.7,0.8,1.2c0.2,0.5,0.3,1,0.3,1.7c0,1.3-0.5,2.3-1.4,2.9s-2.3,1-4.1,1c-1.2,0-2.2-0.1-2.9-0.3
		c-0.7-0.2-1.2-0.4-1.4-0.5l0.5-2.1c0.3,0.1,0.7,0.3,1.4,0.5S106.5,31.6,107.6,31.6z"/>
</g>
<g id="Settings_1_x40_2x.png" display="none">
	<g display="inline">
		<path fill="#F3CF3F" d="M45.5,12.8l-4.2-4.2c-0.3-0.3-0.6-0.4-0.9-0.4c-0.4,0-0.8,0.2-1.2,0.4l-1.9,1.2c-1.5-0.8-3-1.5-4.7-1.9
			L32,5.6c-0.2-0.7-0.7-1.5-1.5-1.5h-6c-0.8,0-1.3,0.8-1.5,1.5l-0.5,2.2c-1.7,0.4-3.2,1.1-4.7,1.9l-1.9-1.2
			c-0.4-0.2-0.8-0.4-1.2-0.4c-0.3,0-0.7,0.1-0.9,0.4l-4.2,4.2c-0.6,0.6-0.4,1.4,0,2.1l1.2,1.9C10.6,16.9,11,17,11.5,17
			c0.5,0,0.4,0.1,1.2-0.1c0-0.4-0.1-0.8-0.3-1.2l-1.1-1.9c0,0,0,0,0,0l3.6-3.6l1.9,1.1c0.3,0.2,0.7,0.3,1.1,0.3c0.4,0,0.7-0.1,1-0.3
			c1.3-0.8,2.7-1.3,4.2-1.7c0.7-0.2,1.3-0.8,1.5-1.5L25,6.1h5c0,0,0,0,0,0l0.5,2.1C30.7,9,31.3,9.6,32,9.7c1.5,0.4,2.9,1,4.2,1.7
			c0.3,0.2,0.7,0.3,1,0.3c0.4,0,0.7-0.1,1.1-0.3l1.9-1.1l3.6,3.6c0,0,0,0,0,0l-1.1,1.9c-0.2,0.4-0.3,0.9-0.3,1.4h1.2
			c0.3,0,0.8-0.2,0.8-0.3l1.2-1.9C45.9,14.2,46.1,13.4,45.5,12.8z"/>
	</g>
</g>
<g id="Settings_1_x40_2x.png_2_" display="none">
	<g display="inline">
		<path fill="#F3CF3F" d="M45.5,37.8l-1.2-1.9c0.1-0.1-0.5-0.3-0.8-0.3h-1.2c-0.1,0.5,0,0.9,0.3,1.4l1.1,1.9c0,0,0,0,0,0l-3.6,3.6
			l-1.9-1.1c-0.3-0.2-0.7-0.3-1.1-0.3c-0.4,0-0.7,0.1-1,0.3C34.9,42,33.5,42.6,32,43c-0.7,0.2-1.3,0.8-1.5,1.5L30,46.6c0,0,0,0,0,0
			h-5l-0.5-2.1c-0.2-0.7-0.7-1.3-1.5-1.5c-1.5-0.4-2.9-1-4.2-1.7c-0.3-0.2-0.7-0.3-1-0.3c-0.4,0-0.7,0.1-1.1,0.3l-1.9,1.1l-3.6-3.6
			c0,0,0,0,0,0l1.1-1.9c0.2-0.4,0.3-0.8,0.3-1.2c-0.7-0.1-0.7-0.1-1.2-0.1c-0.5,0-0.9,0.1-0.8,0.2l-1.2,1.9c-0.4,0.7-0.6,1.5,0,2.1
			l4.2,4.2c0.3,0.3,0.6,0.4,0.9,0.4c0.4,0,0.8-0.2,1.2-0.4l1.9-1.2c1.5,0.8,3,1.5,4.7,1.9l0.5,2.2c0.2,0.7,0.7,1.5,1.5,1.5h6
			c0.8,0,1.3-0.8,1.5-1.5l0.5-2.2c1.7-0.4,3.2-1.1,4.7-1.9l1.9,1.2c0.4,0.2,0.8,0.4,1.2,0.4c0.3,0,0.7-0.1,0.9-0.4l4.2-4.2
			C46.1,39.4,45.9,38.5,45.5,37.8z"/>
	</g>
</g>
<path fill="#F0CD3E" d="M9.9,16.5c-0.7,0-2,0.5-2.4-0.8c-0.3-1.1-0.4-2.1,0.4-3.1c1.2-1.5,2.5-2.8,4-4c1.3-1,2.5-1,3.9,0
	c3.3,2.4,5.7,1.4,6.3-2.6c0.3-1.7,1.3-2.8,3.1-2.8c1.4,0,2.9,0,4.3,0c2,0,3.1,1,3.5,3c0.7,4,2.9,4.9,6.1,2.6c1.5-1.1,2.8-1,4.1,0
	c1.4,1.1,2.7,2.5,3.9,3.9c0.9,1.1,0.6,2.2,0.2,3.3C47,17,46,16.5,45.5,16.6c-0.5,0-1.3-0.1-1.9-0.1c-0.6,0-0.9-0.3-0.6-0.9
	c0.8-1.6-0.7-2.1-1.4-2.8c-0.8-0.8-1.5,0-2.2,0.4c-3.7,2-8.5-0.1-9.5-4.2c-0.3-1.2-0.9-1.8-2.1-1.8c-1.3-0.1-2,0.4-2.4,1.7
	c-1.4,4.1-6.1,5.9-9.9,3.8c-1.3-0.7-3.3,0.4-3.5,1.8c-0.1,0.6,0.6,1.1,0.3,1.7c0,0.1-0.2,0.1-0.3,0.2C11.2,16.4,10.6,16.5,9.9,16.5z
	"/>
<path fill="#F0CD3E" d="M9.6,35.8c-0.7,0-2-0.5-2.4,0.8c-0.3,1.1-0.4,2.1,0.4,3.1c1.2,1.5,2.5,2.8,4,4c1.3,1,2.5,1,3.9,0
	c3.3-2.4,5.7-1.4,6.3,2.6c0.3,1.7,1.3,2.8,3.1,2.8c1.4,0,2.9,0,4.3,0c2,0,3.1-1,3.5-3c0.7-4,2.9-4.9,6.1-2.6c1.5,1.1,2.8,1,4.1,0
	c1.4-1.1,2.7-2.5,3.9-3.9c0.9-1.1,0.6-2.2,0.2-3.3c-0.4-1.1-1.4-0.7-1.9-0.7c-0.5,0-1.3,0.1-1.9,0.1c-0.6,0-0.9,0.3-0.6,0.9
	c0.8,1.6-0.7,2.1-1.4,2.8c-0.8,0.8-1.5,0-2.2-0.4c-3.7-2-8.5,0.1-9.5,4.2c-0.3,1.2-0.9,1.8-2.1,1.8c-1.3,0.1-2-0.4-2.4-1.7
	c-1.4-4.1-6.1-5.9-9.9-3.8c-1.3,0.7-3.3-0.4-3.5-1.8c-0.1-0.6,0.6-1.1,0.3-1.7c0-0.1-0.2-0.1-0.3-0.2C10.9,35.8,10.3,35.8,9.6,35.8z
	"/>
<g>
</g>
<g>
</g>
<g>
</g>
<g>
</g>
<g>
</g>
<g>
</g>
<g>
</g>
<g>
</g>
<g>
</g>
<g>
</g>
<g>
</g>
<g>
</g>
<g>
</g>
<g>
</g>
<g>
</g>
</svg>
